<svg width="1300" height="471" viewBox="0 0 1300 471" fill="none" xmlns="http://www.w3.org/2000/svg">
<path d="M178.364 0C182.864 1.00027 181.164 23.2 166.364 32V45.5H214.864C224.864 48.5001 212.364 76.5 168.864 77.5C168.198 77.6667 166.864 78.4 166.864 80V90C170.364 96.6667 176.864 105 176.864 118C176.864 131 166.864 141 166.864 150.5C166.864 151.833 167.764 155.3 171.364 158.5C175.864 162.5 178.364 174 171.364 183C165.764 190.2 166.031 193.333 166.864 194V205.5L174.864 209C178.364 204.167 187.264 197 194.864 207C200.944 215 191.364 223.167 184.864 225V243C191.531 246.167 200.264 256.1 181.864 270.5V307C181.531 310.833 183.864 321 195.864 331C210.864 343.5 235.364 376 234.864 387C234.364 398 234.864 418 209.364 433.5C208.697 433.833 207.864 434.8 209.864 436C212.364 437.5 220.364 444 196.864 451H108.872C85.372 444 93.372 437.5 95.872 436C97.8713 434.8 97.0386 433.833 96.372 433.5C70.872 418 71.372 398 70.872 387C70.372 376 94.872 343.5 109.872 331C121.872 321 124.205 310.833 123.872 307V270.5C105.472 256.1 114.205 246.167 120.872 243V227.756L78.3642 194C74.7642 191.2 75.1975 185.833 75.8642 183.5C40.8642 152 0.864166 181 24.3642 240C43.1642 287.2 84.8642 318.333 103.364 328L92.3642 341C31.3643 308 10.8642 253 7.36417 246C3.86417 239 -12.6358 182 19.3642 161C44.9641 144.2 73.6975 160.333 84.8642 170.5C94.0641 170.1 99.3642 177.333 100.864 181L135.596 206.933L138.872 205.5V194C139.705 193.333 139.971 190.199 134.372 183C127.372 174 129.872 162.5 134.372 158.5C137.972 155.3 138.872 151.833 138.872 150.5C138.872 141 128.872 131 128.872 118C128.872 105 135.372 96.6667 138.872 90V80C138.872 78.4003 137.539 77.6668 136.872 77.5C93.372 76.5 80.872 48.5 90.872 45.5H139.372V32C124.572 23.2 122.872 1 127.372 0H178.364Z" fill="#A200FF"/>
<path d="M369.695 151.484C383.711 151.484 394.953 156.156 403.421 165.5C411.889 174.698 416.123 187.4 416.123 203.606V275H378.893V208.643C378.893 200.467 376.776 194.116 372.542 189.59C368.308 185.064 362.614 182.801 355.46 182.801C348.306 182.801 342.612 185.064 338.378 189.59C334.144 194.116 332.027 200.467 332.027 208.643V275H294.578V112.94H332.027V169.223C335.823 163.821 341.006 159.514 347.576 156.302C354.146 153.09 361.519 151.484 369.695 151.484ZM497.772 276.752C485.8 276.752 474.996 274.197 465.36 269.087C455.87 263.977 448.351 256.677 442.803 247.187C437.401 237.697 434.7 226.601 434.7 213.899C434.7 201.343 437.474 190.32 443.022 180.83C448.57 171.194 456.162 163.821 465.798 158.711C475.434 153.601 486.238 151.046 498.21 151.046C510.182 151.046 520.986 153.601 530.622 158.711C540.258 163.821 547.85 171.194 553.398 180.83C558.946 190.32 561.72 201.343 561.72 213.899C561.72 226.455 558.873 237.551 553.179 247.187C547.631 256.677 539.966 263.977 530.184 269.087C520.548 274.197 509.744 276.752 497.772 276.752ZM497.772 244.34C504.926 244.34 510.985 241.712 515.949 236.456C521.059 231.2 523.614 223.681 523.614 213.899C523.614 204.117 521.132 196.598 516.168 191.342C511.35 186.086 505.364 183.458 498.21 183.458C490.91 183.458 484.851 186.086 480.033 191.342C475.215 196.452 472.806 203.971 472.806 213.899C472.806 223.681 475.142 231.2 479.814 236.456C484.632 241.712 490.618 244.34 497.772 244.34ZM637.214 276.752C625.242 276.752 614.438 274.197 604.802 269.087C595.312 263.977 587.793 256.677 582.245 247.187C576.843 237.697 574.142 226.601 574.142 213.899C574.142 201.343 576.916 190.32 582.464 180.83C588.012 171.194 595.604 163.821 605.24 158.711C614.876 153.601 625.68 151.046 637.652 151.046C649.624 151.046 660.428 153.601 670.064 158.711C679.7 163.821 687.292 171.194 692.84 180.83C698.388 190.32 701.162 201.343 701.162 213.899C701.162 226.455 698.315 237.551 692.621 247.187C687.073 256.677 679.408 263.977 669.626 269.087C659.99 274.197 649.186 276.752 637.214 276.752ZM637.214 244.34C644.368 244.34 650.427 241.712 655.391 236.456C660.501 231.2 663.056 223.681 663.056 213.899C663.056 204.117 660.574 196.598 655.61 191.342C650.792 186.086 644.806 183.458 637.652 183.458C630.352 183.458 624.293 186.086 619.475 191.342C614.657 196.452 612.248 203.971 612.248 213.899C612.248 223.681 614.584 231.2 619.256 236.456C624.074 241.712 630.06 244.34 637.214 244.34ZM795.708 275L758.478 223.754V275H721.029V112.94H758.478V202.511L795.489 152.798H841.698L790.89 214.118L842.136 275H795.708ZM848.961 213.68C848.961 201.124 851.297 190.101 855.969 180.611C860.787 171.121 867.284 163.821 875.46 158.711C883.636 153.601 892.761 151.046 902.835 151.046C911.449 151.046 918.968 152.798 925.392 156.302C931.962 159.806 936.999 164.405 940.503 170.099V152.798H977.952V275H940.503V257.699C936.853 263.393 931.743 267.992 925.173 271.496C918.749 275 911.23 276.752 902.616 276.752C892.688 276.752 883.636 274.197 875.46 269.087C867.284 263.831 860.787 256.458 855.969 246.968C851.297 237.332 848.961 226.236 848.961 213.68ZM940.503 213.899C940.503 204.555 937.875 197.182 932.619 191.78C927.509 186.378 921.231 183.677 913.785 183.677C906.339 183.677 899.988 186.378 894.732 191.78C889.622 197.036 887.067 204.336 887.067 213.68C887.067 223.024 889.622 230.47 894.732 236.018C899.988 241.42 906.339 244.121 913.785 244.121C921.231 244.121 927.509 241.42 932.619 236.018C937.875 230.616 940.503 223.243 940.503 213.899ZM1002.2 246.53V216.308L1071.4 117.32H1113.23V214.118H1131.19V246.53H1113.23V275H1075.78V246.53H1002.2ZM1078.41 158.492L1041.62 214.118H1078.41V158.492ZM1273.92 152.798V275H1236.47V258.356C1232.68 263.758 1227.5 268.138 1220.93 271.496C1214.5 274.708 1207.35 276.314 1199.46 276.314C1190.12 276.314 1181.87 274.27 1174.72 270.182C1167.56 265.948 1162.01 259.889 1158.07 252.005C1154.13 244.121 1152.16 234.85 1152.16 224.192V152.798H1189.39V219.155C1189.39 227.331 1191.51 233.682 1195.74 238.208C1199.97 242.734 1205.67 244.997 1212.82 244.997C1220.12 244.997 1225.89 242.734 1230.12 238.208C1234.36 233.682 1236.47 227.331 1236.47 219.155V152.798H1273.92Z" fill="black"/>
<path d="M338.872 301.709L319.237 339.25V362H311.366V339.25L291.644 301.709H300.38L315.258 332.244L330.136 301.709H338.872ZM367.849 362.779C363.408 362.779 359.372 361.769 355.739 359.751C352.163 357.733 349.338 354.878 347.262 351.188C345.243 347.439 344.234 343.114 344.234 338.212C344.234 333.368 345.272 329.101 347.348 325.41C349.482 321.662 352.365 318.808 355.998 316.847C359.631 314.829 363.697 313.819 368.195 313.819C372.693 313.819 376.758 314.829 380.391 316.847C384.024 318.808 386.879 321.633 388.955 325.324C391.088 329.015 392.155 333.311 392.155 338.212C392.155 343.114 391.059 347.439 388.868 351.188C386.734 354.878 383.822 357.733 380.132 359.751C376.441 361.769 372.347 362.779 367.849 362.779ZM367.849 355.858C370.674 355.858 373.327 355.195 375.807 353.869C378.286 352.543 380.276 350.553 381.775 347.9C383.332 345.248 384.111 342.018 384.111 338.212C384.111 334.406 383.361 331.177 381.862 328.524C380.362 325.872 378.402 323.911 375.98 322.642C373.558 321.316 370.934 320.653 368.108 320.653C365.225 320.653 362.572 321.316 360.15 322.642C357.786 323.911 355.883 325.872 354.441 328.524C352.999 331.177 352.279 334.406 352.279 338.212C352.279 342.076 352.971 345.334 354.355 347.987C355.796 350.64 357.699 352.629 360.064 353.955C362.428 355.224 365.023 355.858 367.849 355.858ZM444.544 314.598V362H436.672V354.993C435.173 357.415 433.068 359.318 430.358 360.702C427.705 362.029 424.764 362.692 421.535 362.692C417.844 362.692 414.528 361.942 411.587 360.443C408.646 358.886 406.311 356.579 404.581 353.523C402.908 350.467 402.072 346.747 402.072 342.364V314.598H409.857V341.326C409.857 345.997 411.039 349.602 413.404 352.139C415.768 354.619 418.997 355.858 423.092 355.858C427.301 355.858 430.617 354.561 433.039 351.966C435.461 349.371 436.672 345.594 436.672 340.634V314.598H444.544ZM465.706 322.296C467.09 319.586 469.05 317.481 471.588 315.982C474.183 314.483 477.326 313.733 481.016 313.733V321.864H478.94C470.117 321.864 465.706 326.65 465.706 336.223V362H457.834V314.598H465.706V322.296ZM536.692 313.733C540.267 313.733 543.497 314.511 546.38 316.068C549.263 317.568 551.512 319.846 553.127 322.902C554.799 325.958 555.635 329.678 555.635 334.06V362H547.85V335.185C547.85 330.456 546.668 326.852 544.304 324.372C541.94 321.835 538.71 320.566 534.616 320.566C530.464 320.566 527.148 321.864 524.668 324.459C522.246 327.054 521.035 330.831 521.035 335.79V362H513.164V297.99H521.035V321.345C522.592 318.923 524.726 317.049 527.436 315.722C530.204 314.396 533.29 313.733 536.692 313.733ZM589.167 362.779C584.727 362.779 580.69 361.769 577.057 359.751C573.482 357.733 570.656 354.878 568.58 351.188C566.562 347.439 565.553 343.114 565.553 338.212C565.553 333.368 566.591 329.101 568.667 325.41C570.8 321.662 573.684 318.808 577.317 316.847C580.95 314.829 585.015 313.819 589.513 313.819C594.011 313.819 598.077 314.829 601.71 316.847C605.343 318.808 608.197 321.633 610.273 325.324C612.407 329.015 613.474 333.311 613.474 338.212C613.474 343.114 612.378 347.439 610.187 351.188C608.053 354.878 605.141 357.733 601.45 359.751C597.759 361.769 593.665 362.779 589.167 362.779ZM589.167 355.858C591.993 355.858 594.645 355.195 597.125 353.869C599.605 352.543 601.594 350.553 603.094 347.9C604.651 345.248 605.429 342.018 605.429 338.212C605.429 334.406 604.679 331.177 603.18 328.524C601.681 325.872 599.72 323.911 597.298 322.642C594.876 321.316 592.252 320.653 589.427 320.653C586.543 320.653 583.891 321.316 581.469 322.642C579.104 323.911 577.201 325.872 575.76 328.524C574.318 331.177 573.597 334.406 573.597 338.212C573.597 342.076 574.289 345.334 575.673 347.987C577.115 350.64 579.018 352.629 581.382 353.955C583.746 355.224 586.341 355.858 589.167 355.858ZM644.497 362.779C640.056 362.779 636.02 361.769 632.387 359.751C628.811 357.733 625.986 354.878 623.91 351.188C621.891 347.439 620.882 343.114 620.882 338.212C620.882 333.368 621.92 329.101 623.996 325.41C626.13 321.662 629.013 318.808 632.646 316.847C636.279 314.829 640.345 313.819 644.843 313.819C649.341 313.819 653.406 314.829 657.039 316.847C660.672 318.808 663.527 321.633 665.603 325.324C667.736 329.015 668.803 333.311 668.803 338.212C668.803 343.114 667.707 347.439 665.516 351.188C663.382 354.878 660.47 357.733 656.78 359.751C653.089 361.769 648.995 362.779 644.497 362.779ZM644.497 355.858C647.322 355.858 649.975 355.195 652.455 353.869C654.934 352.543 656.924 350.553 658.423 347.9C659.98 345.248 660.759 342.018 660.759 338.212C660.759 334.406 660.009 331.177 658.51 328.524C657.01 325.872 655.05 323.911 652.628 322.642C650.206 321.316 647.582 320.653 644.756 320.653C641.873 320.653 639.22 321.316 636.798 322.642C634.434 323.911 632.531 325.872 631.089 328.524C629.647 331.177 628.927 334.406 628.927 338.212C628.927 342.076 629.619 345.334 631.003 347.987C632.444 350.64 634.347 352.629 636.712 353.955C639.076 355.224 641.671 355.858 644.497 355.858ZM705.622 362L687.024 341.067V362H679.153V297.99H687.024V335.617L705.276 314.598H716.261L693.944 338.212L716.348 362H705.622ZM720.729 338.126C720.729 333.282 721.709 329.043 723.67 325.41C725.63 321.72 728.312 318.865 731.714 316.847C735.174 314.829 739.009 313.819 743.219 313.819C747.371 313.819 750.975 314.713 754.031 316.501C757.088 318.289 759.365 320.538 760.865 323.248V314.598H768.823V362H760.865V353.177C759.308 355.945 756.972 358.252 753.858 360.097C750.802 361.885 747.227 362.779 743.132 362.779C738.923 362.779 735.117 361.741 731.714 359.664C728.312 357.588 725.63 354.676 723.67 350.928C721.709 347.18 720.729 342.912 720.729 338.126ZM760.865 338.212C760.865 334.637 760.144 331.523 758.702 328.87C757.261 326.218 755.3 324.199 752.82 322.815C750.398 321.374 747.717 320.653 744.776 320.653C741.835 320.653 739.153 321.345 736.731 322.729C734.309 324.113 732.377 326.131 730.936 328.784C729.494 331.437 728.773 334.551 728.773 338.126C728.773 341.759 729.494 344.931 730.936 347.641C732.377 350.294 734.309 352.341 736.731 353.782C739.153 355.166 741.835 355.858 744.776 355.858C747.717 355.858 750.398 355.166 752.82 353.782C755.3 352.341 757.261 350.294 758.702 347.641C760.144 344.931 760.865 341.788 760.865 338.212ZM822.953 314.598L794.408 384.317H786.277L795.619 361.481L776.502 314.598H785.239L800.117 353.004L814.822 314.598H822.953ZM838.997 351.101L829.309 374.37H824.032L830.347 351.101H838.997ZM913.287 301.709L893.651 339.25V362H885.78V339.25L866.058 301.709H874.794L889.672 332.244L904.55 301.709H913.287ZM942.263 362.779C937.822 362.779 933.786 361.769 930.153 359.751C926.577 357.733 923.752 354.878 921.676 351.188C919.657 347.439 918.648 343.114 918.648 338.212C918.648 333.368 919.686 329.101 921.762 325.41C923.896 321.662 926.779 318.808 930.412 316.847C934.045 314.829 938.111 313.819 942.609 313.819C947.107 313.819 951.172 314.829 954.805 316.847C958.438 318.808 961.293 321.633 963.369 325.324C965.502 329.015 966.569 333.311 966.569 338.212C966.569 343.114 965.474 347.439 963.282 351.188C961.149 354.878 958.236 357.733 954.546 359.751C950.855 361.769 946.761 362.779 942.263 362.779ZM942.263 355.858C945.088 355.858 947.741 355.195 950.221 353.869C952.7 352.543 954.69 350.553 956.189 347.9C957.746 345.248 958.525 342.018 958.525 338.212C958.525 334.406 957.775 331.177 956.276 328.524C954.776 325.872 952.816 323.911 950.394 322.642C947.972 321.316 945.348 320.653 942.522 320.653C939.639 320.653 936.986 321.316 934.564 322.642C932.2 323.911 930.297 325.872 928.855 328.524C927.414 331.177 926.693 334.406 926.693 338.212C926.693 342.076 927.385 345.334 928.769 347.987C930.21 350.64 932.113 352.629 934.478 353.955C936.842 355.224 939.437 355.858 942.263 355.858ZM1018.96 314.598V362H1011.09V354.993C1009.59 357.415 1007.48 359.318 1004.77 360.702C1002.12 362.029 999.178 362.692 995.949 362.692C992.258 362.692 988.942 361.942 986.001 360.443C983.06 358.886 980.725 356.579 978.995 353.523C977.322 350.467 976.486 346.747 976.486 342.364V314.598H984.271V341.326C984.271 345.997 985.453 349.602 987.818 352.139C990.182 354.619 993.411 355.858 997.506 355.858C1001.72 355.858 1005.03 354.561 1007.45 351.966C1009.88 349.371 1011.09 345.594 1011.09 340.634V314.598H1018.96ZM1040.12 322.296C1041.5 319.586 1043.46 317.481 1046 315.982C1048.6 314.483 1051.74 313.733 1055.43 313.733V321.864H1053.35C1044.53 321.864 1040.12 326.65 1040.12 336.223V362H1032.25V314.598H1040.12V322.296ZM1163.35 301.709L1145.88 362H1137.06L1123.04 313.473L1108.51 362L1099.77 362.087L1082.91 301.709H1091.3L1104.45 352.831L1118.98 301.709H1127.8L1141.64 352.658L1154.87 301.709H1163.35ZM1169.03 338.126C1169.03 333.282 1170.01 329.043 1171.97 325.41C1173.93 321.72 1176.61 318.865 1180.01 316.847C1183.47 314.829 1187.31 313.819 1191.52 313.819C1195.67 313.819 1199.27 314.713 1202.33 316.501C1205.38 318.289 1207.66 320.538 1209.16 323.248V314.598H1217.12V362H1209.16V353.177C1207.6 355.945 1205.27 358.252 1202.15 360.097C1199.1 361.885 1195.52 362.779 1191.43 362.779C1187.22 362.779 1183.41 361.741 1180.01 359.664C1176.61 357.588 1173.93 354.676 1171.97 350.928C1170.01 347.18 1169.03 342.912 1169.03 338.126ZM1209.16 338.212C1209.16 334.637 1208.44 331.523 1207 328.87C1205.56 326.218 1203.6 324.199 1201.12 322.815C1198.69 321.374 1196.01 320.653 1193.07 320.653C1190.13 320.653 1187.45 321.345 1185.03 322.729C1182.61 324.113 1180.67 326.131 1179.23 328.784C1177.79 331.437 1177.07 334.551 1177.07 338.126C1177.07 341.759 1177.79 344.931 1179.23 347.641C1180.67 350.294 1182.61 352.341 1185.03 353.782C1187.45 355.166 1190.13 355.858 1193.07 355.858C1196.01 355.858 1198.69 355.166 1201.12 353.782C1203.6 352.341 1205.56 350.294 1207 347.641C1208.44 344.931 1209.16 341.788 1209.16 338.212ZM1271.25 314.598L1242.7 384.317H1234.57L1243.92 361.481L1224.8 314.598H1233.54L1248.41 353.004L1263.12 314.598H1271.25Z" fill="black"/>
</svg>
